<svg width="459" height="371" viewBox="0 0 459 371" fill="none" xmlns="http://www.w3.org/2000/svg">
<mask id="mask0_107_291" style="mask-type:luminance" maskUnits="userSpaceOnUse" x="0" y="0" width="459" height="371">
<path d="M0 0H458.947V371H0V0Z" fill="white"/>
</mask>
<g mask="url(#mask0_107_291)">
<path d="M344.042 193.843C338.372 196.37 335.454 202.568 331.045 206.884C328.086 209.431 324.943 211.667 321.615 213.591C318.289 215.515 314.831 217.097 311.244 218.337C295.249 224.881 279.196 230.924 262.968 236.698C254.904 239.567 246.576 241.809 238.297 243.793C234.414 244.342 230.633 245.349 226.954 246.818C223.275 248.286 219.787 250.179 216.491 252.496C213.147 255.389 210.334 258.902 206.92 261.769C202.988 265.03 198.904 268.041 194.667 270.802C187.007 275.869 179.505 281.355 171.634 286.016C168.01 287.91 164.609 290.202 161.43 292.892C157.798 296.521 153.909 299.78 149.763 302.671C140.731 307.449 131.273 310.763 121.389 312.612C121.292 312.645 121.213 312.706 121.153 312.795C121.093 312.885 121.062 312.986 121.062 313.097C121.062 313.208 121.093 313.309 121.153 313.398C121.214 313.487 121.293 313.548 121.389 313.581C125.06 314.115 128.73 314.109 132.399 313.563C136.068 313.016 139.607 311.949 143.015 310.36C146.601 309.092 150.042 307.456 153.337 305.45C156.632 303.445 159.719 301.108 162.597 298.441C170.015 292.555 177.775 287.275 185.877 282.602C193.645 277.075 201.285 271.21 208.742 265.19C212.336 262.39 216.117 259.937 220.085 257.831C224.053 255.725 228.153 253.995 232.384 252.641C240.566 249.832 248.462 246.239 256.823 244.072C265.964 241.702 275.252 240.932 284.371 238.268C292.463 235.904 300.132 232.307 308.018 229.267C311.923 228.234 315.649 226.684 319.196 224.617C322.743 222.55 326 220.031 328.966 217.059C334.798 209.902 336.573 200.04 344.315 194.557C344.635 194.331 344.434 193.668 344.042 193.843Z" fill="#FFEEEE"/>
<path d="M216.3 208.219C206.796 212.292 198.017 217.767 189.964 224.643C182.076 230.267 174.903 236.831 168.444 244.335C160.324 251.602 151.826 258.291 142.951 264.402C133.842 271.753 123.711 277.338 114.739 284.904C114.438 285.158 114.703 285.72 115.047 285.482C124.355 279.116 134.794 275.091 144.21 268.924C153.128 263.778 161.658 257.949 169.8 251.438C176.956 244.163 184.443 237.325 192.262 230.924C201.296 225.028 209.704 218.203 217.485 210.448C217.574 210.342 217.647 210.224 217.701 210.092C217.756 209.961 217.79 209.823 217.805 209.679C217.82 209.535 217.813 209.393 217.786 209.251C217.758 209.11 217.712 208.977 217.645 208.852C217.579 208.727 217.497 208.616 217.398 208.521C217.299 208.425 217.189 208.349 217.068 208.292C216.947 208.235 216.821 208.2 216.69 208.188C216.559 208.175 216.428 208.185 216.3 208.219Z" fill="#FFEEEE"/>
<path d="M207.884 199.981C199.687 201.527 191.697 203.913 183.915 207.136C176.134 210.36 168.701 214.364 161.618 219.148C148.551 225.534 136.001 232.97 123.968 241.456C117.452 247.006 111.719 253.506 105.109 258.969C98.9622 264.051 92.2676 268.066 85.9512 272.851C79.9908 277.364 74.3078 282.258 68.1145 286.399C65.0721 288.384 61.8801 290.017 58.5385 291.299C55.1969 292.58 51.7725 293.483 48.2653 294.009C47.8921 294.076 47.9994 294.604 48.2653 294.726C60.955 300.553 74.9494 288.928 84.8802 281.511C91.0025 276.942 97.5616 273.037 103.506 268.208C109.861 262.692 115.811 256.693 121.356 250.21C127.321 244.977 133.655 240.355 140.36 236.342C147.065 232.33 154.037 228.989 161.276 226.319C177.094 218.279 193.045 210.545 208.987 202.831C210.6 202.047 209.315 199.766 207.884 199.981Z" fill="#FFEEEE"/>
<path d="M186.261 195.335C183.486 190.766 180.293 186.581 176.682 182.78C172.693 178.576 168.999 174.081 165.601 169.294C158.489 159.55 152.884 148.801 146.214 138.732C139.941 129.4 132.988 120.724 125.355 112.705C121.036 108.146 116.619 103.69 112.225 99.2233C110.554 97.5273 108.852 95.8711 107.048 94.349C105 92.6176 101.421 91.0675 100.46 88.2788L100.069 88.3966C100.555 92.1411 103.995 94.5963 106.102 97.3189C109.882 102.207 113.341 107.385 117.293 112.109C125.419 121.823 133.412 131.674 141.273 141.662C148.473 151.677 155.184 162.072 161.406 172.848L162.672 174.767C154.642 177.277 146.886 180.565 139.403 184.629C137.894 185.176 136.417 185.811 134.97 186.532C137.943 184.615 140.943 182.752 144.007 181.107C146.543 180.096 148.896 178.712 151.067 176.954C153.238 175.197 155.137 173.138 156.766 170.778C157.013 170.354 156.508 169.767 156.117 170.067C151.28 173.411 146.166 176.125 140.774 178.209C134.154 181.049 127.792 184.468 121.688 188.466C115.455 191.876 109.47 195.747 103.732 200.079C97.9939 204.41 92.5597 209.16 87.4293 214.329C82.7835 219.83 78.6522 225.676 73.5324 230.708C68.1169 236.031 61.8955 240.23 56.3075 245.324C50.5865 250.539 44.8144 255.702 39.176 261.022C37.9289 262.573 36.5813 264.01 35.1333 265.334C33.6853 266.658 32.1537 267.852 30.5386 268.918C28.9235 269.985 27.2438 270.909 25.4994 271.693C23.7551 272.476 21.9664 273.109 20.1336 273.591V273.851C23.2593 273.507 26.3343 272.869 29.3587 271.937C32.383 271.005 35.3113 269.793 38.1433 268.301C40.9753 266.81 43.6685 265.061 46.223 263.055C48.7774 261.049 51.1546 258.816 53.3545 256.355C59.5281 251.129 65.4186 245.544 71.0261 239.6C76.3053 233.884 81.018 227.418 86.7984 222.29C98.5437 211.471 111.048 201.837 124.31 193.388L125.271 192.788C121.983 195.436 118.867 198.311 115.924 201.411C111.799 206.163 107.438 210.638 102.841 214.837C99.2718 217.765 95.3733 220.067 91.8926 223.167C84.6817 231.492 77.002 239.26 68.8535 246.47L68.9617 246.699C77.1634 241.319 84.7704 235.068 91.7828 227.945C100.227 220.898 108.512 213.673 116.943 206.592C120.927 203.03 125.069 199.705 129.369 196.617C133.157 194.075 137.232 192.135 140.869 189.346C146.149 185.864 151.799 183.4 157.817 181.953C159.135 181.655 160.382 181.147 161.559 180.43C162.735 179.712 163.786 178.818 164.713 177.746C166.73 180.608 168.907 183.314 171.244 185.866C173.125 188.012 175.132 190.005 177.265 191.846C179.839 193.556 182.497 195.092 185.238 196.453C185.849 196.837 186.711 196.031 186.261 195.335Z" fill="#FFEEEE"/>
<path d="M91.7292 153.552C90.8993 153.837 90.1032 154.208 89.3409 154.667C88.5787 155.125 87.8648 155.662 87.1999 156.276C86.5351 156.89 85.9317 157.571 85.3904 158.317C84.8486 159.064 84.3799 159.861 83.9834 160.71C80.879 165.881 77.157 170.445 72.8173 174.404C64.6834 182.091 57.2696 190.466 49.6328 198.727C45.9094 202.756 41.9853 206.588 38.3775 210.742C35.5539 214.352 33.1228 218.257 31.0842 222.456C24.5648 231.504 17.5014 240.008 9.89401 247.968L10.1574 248.258C16.3037 240.899 23.568 234.811 29.3039 227.023C36.2908 218.306 43.8893 210.286 52.0994 202.964C59.9138 195.451 67.3584 187.521 74.4333 179.172C77.9263 174.976 80.7092 170.294 84.0552 165.986C86.9578 162.248 91.7729 160.885 93.929 156.689C94.0207 156.505 94.0867 156.31 94.1272 156.106C94.1673 155.901 94.18 155.693 94.1652 155.484C94.1504 155.275 94.1087 155.073 94.0405 154.876C93.9719 154.68 93.8795 154.499 93.763 154.333C93.6466 154.166 93.5104 154.022 93.3559 153.899C93.2007 153.775 93.0331 153.679 92.853 153.61C92.6722 153.541 92.4864 153.502 92.2956 153.492C92.1049 153.482 91.915 153.502 91.7292 153.552Z" fill="#FFEEEE"/>
<path d="M81.4425 142.235L81.3997 141.89L81.2882 141.565L81.114 141.275L80.8852 141.035L80.6135 140.857L80.313 140.749L79.9983 140.717L79.6846 140.763C76.8959 141.499 75.6118 143.73 73.6374 145.927C71.1741 148.663 68.4722 151.14 66.1228 154.002C61.4316 159.722 57.9031 166.445 53.7362 172.604C48.8006 179.902 42.9318 186.2 37.485 193.008C35.4265 194.985 33.6028 197.196 32.0139 199.64C30.4251 202.084 29.1135 204.696 28.0794 207.475L28.1089 207.799L28.3239 208.023L28.6198 208.038L28.8532 207.838C37.6637 195.497 47.4184 184.131 58.117 173.741C62.5101 168.151 66.2269 161.846 71.0817 156.708C74.5812 153.007 82.1841 148.371 81.4425 142.235Z" fill="#FFEEEE"/>
<path d="M119.582 169.893C116.128 167.82 112.875 165.42 109.823 162.693C106.508 160.955 103.37 158.894 100.409 156.509C95.7144 151.713 92.9315 145.391 88.6515 140.291C83.8381 135.343 79.4444 129.981 75.4705 124.204C73.4292 120.522 71.8594 116.613 70.7609 112.475C69.6624 108.337 69.0732 104.114 68.9931 99.8057H68.8197C68.2994 104.237 68.2565 108.673 68.6884 113.116C69.1211 117.558 70.0179 121.885 71.3793 126.095C73.1284 129.379 75.1802 132.417 77.5346 135.21C79.889 138.002 82.4905 140.482 85.339 142.65C90.9253 148.34 95.9766 154.543 101.162 160.674C101.702 161.447 102.278 162.185 102.891 162.889C103.504 163.593 104.15 164.259 104.829 164.886C105.508 165.513 106.216 166.098 106.953 166.64C107.689 167.183 108.451 167.68 109.237 168.132C110.023 168.584 110.829 168.987 111.656 169.343C112.482 169.699 113.323 170.005 114.179 170.26C115.035 170.516 115.902 170.719 116.778 170.872C117.655 171.024 118.536 171.123 119.423 171.171C120.145 171.187 120.154 170.158 119.582 169.893Z" fill="#FFEEEE"/>
<path d="M140.005 155.497C138.658 152.782 137.164 150.167 135.525 147.653C133.885 145.138 132.112 142.743 130.205 140.467C128.299 138.192 126.272 136.052 124.126 134.048C121.981 132.045 119.731 130.193 117.379 128.492C113.902 123.96 111.03 119.006 108.764 113.63C104.552 107.851 100.875 101.688 97.7326 95.1399C97.7127 95.0607 97.6703 95.0004 97.6054 94.9605C97.5403 94.9199 97.4716 94.9105 97.3998 94.9323C97.3276 94.9541 97.2726 95.0006 97.2363 95.0718C97.1993 95.1432 97.1907 95.2186 97.2105 95.2974C97.6449 98.2891 98.267 101.233 99.0764 104.129C99.8856 107.026 100.874 109.846 102.043 112.591C103.211 115.336 104.548 117.979 106.053 120.519C107.557 123.059 109.216 125.472 111.027 127.758C115.066 132.155 120.151 134.892 124.053 139.585C128.795 145.285 135.036 149.773 139.291 155.828C139.534 156.172 140.177 155.999 140.005 155.497Z" fill="#FFEEEE"/>
<path d="M208.224 170.701C206.113 166.624 203.724 162.754 201.056 159.09C196.699 153.175 192.742 146.954 189.185 140.426C185.588 134.61 181.951 128.823 178.275 123.066C174.622 117.328 170.743 111.768 167.087 106.033C163.515 100.434 161.201 94.0737 157.771 88.3985C156.476 86.1547 154.994 84.0713 153.324 82.1482C151.654 80.2251 149.829 78.4994 147.85 76.9711C142.485 74.004 137.37 70.5868 132.504 66.7197L132.121 67.141C138.639 76.2626 146.895 83.2597 153.252 92.5362C160.448 103.038 167.929 113.231 174.819 123.998C178.113 129.146 181.357 134.333 184.645 139.485C188 144.74 191.977 149.353 195.409 154.511C197.983 159.258 200.315 164.144 202.405 169.169C204.517 173.202 207.009 176.991 209.053 181.066C209.168 181.27 209.324 181.424 209.522 181.527C209.719 181.63 209.927 181.666 210.144 181.635C210.361 181.604 210.552 181.511 210.719 181.355C210.886 181.199 211.001 181.007 211.064 180.777C211.131 179.876 211.119 178.978 211.029 178.08C210.939 177.182 210.773 176.301 210.53 175.438C210.286 174.576 209.971 173.746 209.583 172.949C209.195 172.153 208.742 171.403 208.224 170.701Z" fill="#FFEEEE"/>
<path d="M248.595 187.429C247.848 180.32 246.469 173.362 244.459 166.554C242.057 160.104 238.589 154.256 236.233 147.766C234.293 141.274 232.042 134.914 229.481 128.686C225.999 121.432 222.401 114.244 218.961 106.964C215.521 99.6842 212.296 92.2957 209.48 84.6998C207.415 79.1234 206.908 73.923 202.283 70.0924C197.02 65.7345 190.97 62.6686 185.367 58.9051C182.754 57.1511 180.341 55.0782 177.761 53.2698C174.268 51.4043 170.948 49.2236 167.8 46.7276C167.723 46.6488 167.633 46.6071 167.529 46.6007C167.424 46.5951 167.331 46.6274 167.248 46.6977C167.165 46.7678 167.113 46.8589 167.092 46.9713C167.071 47.0836 167.085 47.1905 167.135 47.2911C170.324 52.2816 174.127 56.6256 178.543 60.323C183.243 64.7454 188.251 68.6971 193.567 72.178C195.04 73.0813 196.437 74.1091 197.758 75.2613C199.079 76.4135 200.306 77.6748 201.441 79.0455C202.575 80.4162 203.601 81.8782 204.519 83.4316C205.437 84.9849 206.235 86.6094 206.913 88.3048C209.657 95.3381 212.327 102.387 215.288 109.318C218.023 116.187 221.146 122.838 224.655 129.271C226.643 132.407 228.349 135.719 229.774 139.204C231.199 142.69 232.318 146.29 233.131 150.005C234.881 156.44 237.054 162.698 239.65 168.778C241.686 175.425 244.058 181.924 246.768 188.275C247.31 189.443 248.796 188.585 248.595 187.429Z" fill="#FFEEEE"/>
<path d="M268.209 187.418C266.65 184.247 263.804 182.5 262.125 179.335C260.51 176.291 259.188 173.127 257.485 170.119C253.565 163.111 249.98 155.902 246.731 148.493C243.303 141.649 239.535 135.039 235.428 128.661C233.345 125.06 231.766 121.194 229.937 117.444C227.877 114.193 225.982 110.83 224.251 107.356C224.129 107.026 223.568 107.018 223.619 107.447C224.016 110.014 224.869 112.384 226.179 114.555C228.126 118.404 229.37 122.619 231.051 126.605C234.647 135.121 239.437 142.84 242.606 151.604C245.479 159.473 248.977 166.992 253.101 174.16C253.796 175.786 254.608 177.337 255.539 178.814C256.47 180.291 257.506 181.672 258.648 182.959C259.79 184.245 261.021 185.418 262.342 186.479C263.663 187.539 265.055 188.471 266.518 189.276C266.636 189.347 266.761 189.395 266.894 189.422C267.027 189.448 267.16 189.45 267.293 189.429C267.426 189.408 267.553 189.365 267.674 189.298C267.794 189.232 267.902 189.147 267.997 189.042C268.092 188.937 268.17 188.819 268.23 188.686C268.291 188.554 268.33 188.415 268.349 188.269C268.368 188.123 268.366 187.976 268.342 187.831C268.318 187.685 268.274 187.548 268.209 187.418Z" fill="#FFEEEE"/>
<path d="M275.792 135.691C273.793 130.37 272.059 124.819 269.622 119.717L268.221 116.766C270.881 116.654 273.41 115.966 275.809 114.703C281.112 111.826 282.465 100.058 282.25 100.334C279.72 103.601 278.502 108.356 274.838 110.371C272.854 111.362 270.773 111.845 268.593 111.82C267.666 111.842 266.751 111.73 265.849 111.714C261.767 102.974 257.682 94.1677 253.057 85.8216L252.108 84.1908L254.986 84.5106C258.628 84.1536 262.253 84.2941 265.863 84.9319C269.473 85.5706 272.955 86.6866 276.311 88.2811C276.421 88.3482 276.538 88.3944 276.662 88.4197C276.786 88.445 276.911 88.4481 277.036 88.4289C277.16 88.4097 277.279 88.3693 277.392 88.3075C277.505 88.2458 277.606 88.1661 277.695 88.0683C277.785 87.9705 277.857 87.8599 277.913 87.7358C277.97 87.6117 278.007 87.4812 278.025 87.3444C278.043 87.2076 278.04 87.0708 278.017 86.9349C277.994 86.799 277.952 86.6703 277.892 86.5489C277.527 85.9039 277.122 85.2896 276.68 84.706C276.237 84.1225 275.76 83.575 275.248 83.0639C274.736 82.5529 274.194 82.0828 273.623 81.654C273.052 81.2255 272.457 80.8413 271.837 80.5032C271.218 80.1653 270.58 79.8753 269.923 79.6334C269.267 79.3915 268.599 79.2013 267.919 79.0618C267.238 78.9222 266.553 78.8344 265.862 78.7981C265.17 78.7624 264.48 78.7791 263.791 78.8482C258.891 79.4235 253.977 79.7089 249.05 79.7035C243.8 73.4544 237.859 68.1341 231.227 63.7433C226.297 60.0794 222.383 55.1191 217.766 51.0212C213.03 47.408 208.732 43.2483 204.874 38.542L204.661 38.7232C210.133 48.2447 216.629 56.8335 224.15 64.4898C232.463 73.1285 242.948 77.1104 249.096 88.3675C254.781 98.7738 258.309 110.4 264.082 120.821C266.878 125.87 269.064 131.245 271.761 136.357C274.631 142.687 277.797 148.833 281.258 154.795C281.629 155.352 282.55 155.053 282.341 154.294C280.622 148.036 278.069 141.752 275.792 135.691Z" fill="#FFEEEE"/>
<path d="M277.738 80.4072L277.589 80.5332C277.861 82.2059 278.316 83.8167 278.953 85.3654C279.59 86.9141 280.391 88.3536 281.354 89.6838C281.807 90.6842 282.181 91.719 282.476 92.7883C282.77 93.8575 282.982 94.9462 283.11 96.0542C283.238 97.1623 283.282 98.2745 283.239 99.3905C283.198 100.507 283.071 101.611 282.86 102.704L282.901 103.021L283.014 103.315L283.192 103.568L283.424 103.762L283.694 103.884L283.983 103.926L284.272 103.885L284.542 103.764C292.396 98.0353 285.226 82.2011 277.738 80.4072Z" fill="#FFEEEE"/>
<path d="M83.5375 86.7881C82.8661 86.8006 82.2014 86.8778 81.5427 87.0191C80.8838 87.1605 80.2418 87.3652 79.616 87.6316C78.9901 87.8979 78.3907 88.2232 77.8174 88.6059C77.2443 88.9891 76.7058 89.424 76.2028 89.9118C75.6999 90.3992 75.2396 90.9317 74.8224 91.5086C74.4054 92.0857 74.0379 92.6983 73.7193 93.3467C73.4013 93.9954 73.1371 94.6692 72.9273 95.3688C72.7176 96.0682 72.5656 96.7829 72.4715 97.5121C72.4195 98.1164 73.1602 98.3574 73.5128 97.9851C76.7972 94.8446 80.4337 92.3126 84.4221 90.3892C86.1742 89.4264 85.0734 87.011 83.5375 86.7881Z" fill="#FFEEEE"/>
<path d="M121.512 54.685C119.073 54.4377 116.654 54.5853 114.255 55.128C111.856 55.6716 109.581 56.5862 107.43 57.873C106.581 58.6033 105.801 59.4136 105.091 60.3054C104.381 61.1969 103.754 62.154 103.209 63.1759C102.664 64.1979 102.212 65.2669 101.851 66.3829C101.491 67.4989 101.23 68.642 101.066 69.8124C101.037 69.9429 101.043 70.0706 101.084 70.1974C101.124 70.3243 101.193 70.4276 101.29 70.51C101.387 70.5917 101.496 70.6378 101.618 70.6486C101.739 70.6592 101.854 70.6325 101.961 70.5685C105.007 68.3749 107.797 65.8431 110.333 62.9735C111.146 61.9886 112.056 61.1298 113.066 60.3969C114.075 59.6639 115.152 59.0803 116.296 58.6455C118.225 57.9995 120.084 57.1648 121.872 56.1404C122.006 56.0489 122.103 55.9221 122.161 55.7608C122.22 55.5986 122.228 55.4337 122.187 55.2661C122.145 55.0985 122.062 54.9608 121.937 54.853C121.813 54.7452 121.67 54.6895 121.512 54.685Z" fill="#FFEEEE"/>
<path d="M160.667 39.6383C159.86 39.0766 159.027 38.563 158.17 38.0971C157.313 37.6315 156.436 37.2156 155.539 36.8506C154.642 36.4855 153.731 36.1729 152.804 35.9122C151.878 35.6522 150.941 35.4456 149.995 35.2925C149.049 35.1394 148.098 35.0416 147.142 34.9981C146.187 34.9545 145.231 34.9659 144.277 35.0321C143.322 35.0983 142.373 35.2187 141.43 35.3945C140.487 35.5694 139.555 35.7986 138.634 36.0812C137.315 36.9438 136.067 37.9164 134.891 38.9998C133.715 40.0832 132.625 41.2631 131.623 42.5397C130.62 43.8162 129.718 45.1727 128.915 46.6091C128.112 48.0456 127.42 49.5435 126.838 51.1027L127.163 51.5666C131.268 49.0639 135.076 46.1016 138.587 42.6796C140.307 41.8688 142.075 41.2167 143.891 40.7222C145.708 40.2276 147.549 39.8978 149.415 39.7325C151.28 39.5667 153.146 39.5685 155.011 39.7366C156.876 39.9051 158.717 40.2376 160.533 40.7344C161.151 40.7788 161.157 39.8549 160.667 39.6383Z" fill="#FFEEEE"/>
<path d="M192.932 26.7982C183.913 16.477 172.05 29.6793 165.723 36.6962L165.758 36.7868C167.406 36.8432 169.025 36.6337 170.615 36.1571C172.205 35.6806 173.697 34.9595 175.09 33.9927C177.323 32.12 178.764 29.4265 181.3 27.966C182.184 27.5773 183.093 27.2792 184.026 27.07C184.959 26.8607 185.902 26.7447 186.854 26.7212C187.806 26.6979 188.753 26.7681 189.694 26.9313C190.634 27.0944 191.554 27.349 192.453 27.6942C192.559 27.7215 192.662 27.7116 192.762 27.6647C192.862 27.6177 192.94 27.5432 192.994 27.44C193.049 27.3367 193.071 27.2261 193.059 27.1075C193.048 26.9888 193.005 26.8861 192.932 26.7982Z" fill="#FFEEEE"/>
<path d="M137.501 82.6105C136.916 82.6366 136.333 82.702 135.755 82.8071C135.177 82.9122 134.606 83.0563 134.044 83.2393C133.482 83.4223 132.932 83.6425 132.395 83.8998C131.858 84.1571 131.337 84.4506 130.833 84.7786C130.329 85.1075 129.845 85.4681 129.382 85.8626C128.919 86.2567 128.48 86.6808 128.064 87.135C127.649 87.5889 127.261 88.0694 126.9 88.5762C126.539 89.0826 126.208 89.6123 125.906 90.1641L126.115 90.3934C128.095 89.3314 130.132 88.4233 132.226 87.669C134.257 87.0484 136.263 86.3798 138.267 85.6559C138.444 85.594 138.605 85.4982 138.749 85.3678C138.893 85.2373 139.009 85.0824 139.097 84.903C139.187 84.7236 139.241 84.5315 139.262 84.3286C139.284 84.1256 139.27 83.9254 139.22 83.7279C139.171 83.5304 139.09 83.351 138.976 83.1888C138.863 83.0267 138.727 82.8926 138.567 82.7884C138.407 82.6842 138.234 82.6163 138.05 82.5855C137.866 82.5544 137.683 82.5638 137.501 82.6105Z" fill="#FFEEEE"/>
<path d="M187.124 74.8579C183.37 72.7378 176.591 72.8239 174.79 77.9039L175.165 78.4475C176.975 78.298 178.662 77.5614 180.437 77.238C182.48 76.8647 184.601 77.0024 186.662 76.7306C187.473 76.621 188.019 75.3634 187.124 74.8579Z" fill="#FFEEEE"/>
<path d="M238.787 80.8419C238.472 80.5945 238.133 80.3979 237.769 80.2548C237.405 80.1107 237.03 80.0247 236.644 79.9948C236.257 79.9656 235.876 79.995 235.497 80.0829C235.119 80.1708 234.758 80.314 234.416 80.5124C233.739 80.7715 233.091 81.1004 232.473 81.4999C231.833 81.904 231.654 82.6931 231.094 83.0655L231.171 83.7105C231.781 83.8525 232.151 84.3925 232.811 84.4351C233.458 84.4109 234.091 84.2974 234.71 84.0944C236.034 83.9784 237.305 83.6324 238.525 83.0561C238.608 83.0005 238.685 82.9356 238.755 82.8604C238.825 82.7858 238.887 82.7037 238.94 82.614C238.993 82.5242 239.037 82.4292 239.071 82.3286C239.104 82.2281 239.128 82.1248 239.14 82.0179C239.153 81.9119 239.154 81.805 239.145 81.698C239.136 81.5911 239.116 81.4869 239.085 81.3855C239.055 81.284 239.014 81.1871 238.964 81.0946C238.913 81.0031 238.854 80.9189 238.787 80.8419Z" fill="#FFEEEE"/>
<path d="M80.2468 110.884C79.985 110.808 79.7216 110.804 79.4573 110.871C79.1931 110.938 78.9585 111.069 78.7538 111.263C78.3194 111.623 77.9602 112.057 77.6761 112.565C77.2195 113.61 77.0527 114.708 77.174 115.859C77.1772 115.978 77.215 116.081 77.2872 116.17C77.3596 116.259 77.4498 116.311 77.5564 116.327C77.6637 116.343 77.7628 116.319 77.8545 116.255C77.9453 116.191 78.0073 116.102 78.0395 115.989C78.3557 115.18 78.7983 114.466 79.3665 113.845C79.9462 113.285 80.4084 112.626 80.7521 111.867C80.7775 111.765 80.7843 111.662 80.7725 111.557C80.7606 111.452 80.7311 111.354 80.6841 111.262C80.6368 111.17 80.5751 111.092 80.5 111.026C80.4243 110.96 80.3392 110.913 80.2468 110.884Z" fill="#FFEEEE"/>
<path d="M95.0967 166.161C93.8201 165.481 91.4352 164.494 90.1313 165.563C90.0198 165.64 89.9191 165.731 89.8282 165.836C89.7382 165.941 89.6606 166.057 89.597 166.183C89.5334 166.31 89.4855 166.442 89.4525 166.582C89.4197 166.722 89.4033 166.864 89.4033 167.009C89.4033 167.153 89.4197 167.295 89.4525 167.436C89.4854 167.575 89.5336 167.708 89.597 167.835C89.6607 167.962 89.7374 168.077 89.8283 168.182C89.9183 168.287 90.0198 168.378 90.1313 168.455C90.5607 168.72 91.0045 168.95 91.4633 169.145L93.0892 170.295C94.0741 171.142 95.1709 171.743 96.38 172.098C96.4906 172.13 96.6029 172.147 96.7169 172.151C96.8308 172.154 96.944 172.143 97.0563 172.119C97.1686 172.094 97.2759 172.056 97.38 172.005C97.484 171.953 97.5815 171.89 97.6723 171.813C97.7631 171.738 97.8449 171.651 97.9184 171.555C97.9914 171.459 98.0538 171.355 98.105 171.243C98.1565 171.131 98.1958 171.014 98.2231 170.892C98.2504 170.771 98.2649 170.647 98.2666 170.521C98.2026 170.037 98.0816 169.569 97.9049 169.119C97.7274 168.67 97.4994 168.253 97.2212 167.87C96.9429 167.487 96.6233 167.151 96.2628 166.861C95.9028 166.571 95.5135 166.337 95.0967 166.161Z" fill="#FFEEEE"/>
<path d="M150.533 201.368C149.984 200.621 149.343 199.987 148.609 199.465C147.875 198.944 147.085 198.562 146.239 198.32C145.568 198.04 144.874 197.914 144.157 197.94C143.44 197.966 142.756 198.142 142.103 198.469C141.967 198.559 141.85 198.674 141.755 198.813C141.659 198.953 141.591 199.108 141.551 199.276C141.51 199.446 141.501 199.616 141.521 199.789C141.542 199.962 141.592 200.124 141.671 200.276C142.448 201.228 143.344 202.017 144.359 202.643C145.509 203.53 146.711 204.321 147.965 205.017C148.187 205.149 148.423 205.235 148.673 205.275C148.924 205.315 149.172 205.306 149.419 205.249C149.666 205.191 149.897 205.089 150.111 204.941C150.325 204.794 150.509 204.611 150.664 204.392C150.818 204.172 150.933 203.93 151.009 203.666C151.085 203.401 151.117 203.13 151.105 202.854C151.093 202.577 151.037 202.311 150.939 202.056C150.84 201.8 150.705 201.571 150.533 201.368Z" fill="#FFEEEE"/>
<path d="M205.745 242.48C205.177 242.114 204.581 241.811 203.958 241.574L202.378 240.704C201.367 239.965 200.293 239.358 199.158 238.883C199.073 238.859 198.987 238.845 198.901 238.842C198.814 238.84 198.727 238.847 198.642 238.866C198.557 238.885 198.475 238.914 198.395 238.953C198.316 238.992 198.242 239.041 198.172 239.099C198.103 239.157 198.041 239.222 197.985 239.296C197.929 239.369 197.882 239.449 197.843 239.534C197.804 239.619 197.774 239.708 197.754 239.801C197.733 239.894 197.722 239.988 197.721 240.084C197.781 241.073 197.996 242.019 198.368 242.923C198.74 243.826 199.243 244.63 199.879 245.334C200.068 245.579 200.278 245.8 200.507 245.998C200.737 246.197 200.983 246.367 201.244 246.511C201.505 246.655 201.777 246.769 202.059 246.853C202.341 246.936 202.628 246.988 202.92 247.009C203.211 247.03 203.502 247.018 203.792 246.974C204.082 246.931 204.364 246.856 204.64 246.75C204.916 246.644 205.179 246.509 205.43 246.344C205.681 246.18 205.915 245.99 206.131 245.774C206.231 245.659 206.318 245.533 206.392 245.396C206.466 245.259 206.526 245.115 206.571 244.965C206.616 244.814 206.645 244.659 206.658 244.501C206.672 244.343 206.669 244.185 206.651 244.027C206.632 243.87 206.598 243.717 206.548 243.567C206.499 243.418 206.434 243.276 206.356 243.142C206.277 243.008 206.187 242.886 206.083 242.774C205.98 242.663 205.868 242.563 205.745 242.48Z" fill="#FFEEEE"/>
<path d="M334.73 100.05C324.831 101.292 315.234 103.882 305.939 107.818C301.292 108.409 296.722 109.415 292.227 110.835C287.733 112.256 283.376 114.073 279.155 116.285C278.898 116.483 278.951 117.055 279.335 117.01C283.622 116.524 287.823 115.138 292.103 114.461C297.08 113.675 302.095 113.21 307.04 112.196C316.884 110.399 326.311 107.145 335.32 102.433C335.426 102.359 335.519 102.269 335.6 102.162C335.68 102.055 335.742 101.938 335.789 101.809C335.834 101.68 335.861 101.547 335.867 101.409C335.874 101.271 335.861 101.135 335.828 101.002C335.795 100.869 335.744 100.744 335.674 100.628C335.605 100.513 335.521 100.413 335.422 100.327C335.323 100.241 335.215 100.175 335.097 100.127C334.979 100.079 334.856 100.054 334.73 100.05Z" fill="#FFEEEE"/>
<path d="M1.71226 262.341C3.32288 259.575 5.09645 256.94 7.033 254.438C8.96955 251.935 11.0513 249.588 13.2783 247.395C15.5052 245.203 17.857 243.186 20.3335 241.343C22.81 239.501 25.3887 237.851 28.0694 236.393C28.0694 236.393 34.6012 235.954 34.2313 248.134C33.8613 260.315 11.3226 274.707 11.3226 274.707C11.3226 274.707 0.0491498 272.883 1.71226 262.341Z" fill="#FFEEEE"/>
<path d="M14.5258 227.142C15.3449 225.056 16.2887 223.04 17.3574 221.095C18.4261 219.149 19.6097 217.292 20.9083 215.523C22.2069 213.754 23.6086 212.089 25.1133 210.529C26.618 208.969 28.2119 207.527 29.8951 206.204C29.8951 206.204 34.1421 202.309 35.0851 210.734C36.0281 219.16 22.1204 231.701 22.1204 231.701C22.1204 231.701 14.4283 234.59 14.5258 227.142Z" fill="#FFEEEE"/>
<path d="M35.4468 280.276C37.2254 277.637 39.1584 275.141 41.2456 272.789C43.3329 270.437 45.5554 268.251 47.9131 266.23C50.2708 264.209 52.7421 262.372 55.327 260.719C57.9119 259.066 60.5867 257.613 63.3514 256.358C63.3514 256.358 69.8948 256.408 68.771 268.532C67.6471 280.656 44.271 293.33 44.271 293.33C44.271 293.33 33.1346 290.672 35.4468 280.276Z" fill="#FFEEEE"/>
<path d="M106.089 298.328C107.972 296.178 109.994 294.197 112.151 292.383C114.309 290.57 116.58 288.945 118.962 287.51C121.345 286.074 123.813 284.844 126.365 283.819C128.918 282.794 131.527 281.987 134.191 281.396C134.523 281.42 134.854 281.466 135.181 281.533C135.508 281.6 135.831 281.689 136.148 281.798C136.466 281.908 136.777 282.038 137.08 282.189C137.383 282.339 137.678 282.509 137.963 282.699C138.247 282.888 138.521 283.096 138.783 283.32C139.046 283.546 139.294 283.787 139.531 284.045C139.767 284.303 139.987 284.575 140.194 284.862C140.4 285.15 140.589 285.449 140.763 285.761C140.936 286.073 141.092 286.395 141.23 286.728C141.368 287.06 141.488 287.401 141.589 287.749C141.69 288.097 141.772 288.451 141.835 288.809C141.897 289.168 141.939 289.53 141.963 289.895C141.986 290.259 141.989 290.624 141.972 290.989C141.955 291.354 141.918 291.716 141.862 292.076C141.806 292.436 141.73 292.791 141.635 293.142C141.54 293.491 141.426 293.835 141.293 294.17C138.356 305.922 112.819 312.806 112.819 312.806C112.819 312.806 102.24 308.157 106.089 298.328Z" fill="#FFEEEE"/>
<path d="M174.77 166.952C174.782 166.542 174.817 166.136 174.874 165.731C174.931 165.326 175.01 164.928 175.111 164.533C175.213 164.139 175.335 163.753 175.478 163.375C175.622 162.998 175.786 162.631 175.971 162.275C176.155 161.919 176.358 161.576 176.58 161.247C176.802 160.918 177.042 160.605 177.298 160.308C177.555 160.011 177.827 159.732 178.115 159.471C178.403 159.21 178.703 158.969 179.018 158.748C179.331 158.527 179.657 158.328 179.993 158.15C180.329 157.972 180.674 157.818 181.027 157.685C181.381 157.553 181.74 157.445 182.105 157.361C182.47 157.277 182.838 157.217 183.21 157.182C183.582 157.146 183.954 157.136 184.328 157.15C184.701 157.165 185.072 157.204 185.44 157.267C185.808 157.331 186.172 157.418 186.531 157.531C186.89 157.643 187.241 157.778 187.586 157.937C191.709 161.321 195.477 165.128 198.89 169.36C202.302 173.591 205.287 178.159 207.846 183.062C208.139 184.979 204.468 186.174 200.622 189.412C196.776 192.65 196.252 194.757 193.98 194.952C192.79 194.207 191.638 193.399 190.523 192.525C189.409 191.652 188.337 190.719 187.309 189.726C186.281 188.733 185.302 187.685 184.372 186.582C183.441 185.48 182.564 184.328 181.74 183.128C180.917 181.927 180.151 180.684 179.443 179.397C178.734 178.111 178.088 176.789 177.502 175.43C176.917 174.072 176.396 172.684 175.939 171.267C175.483 169.85 175.093 168.412 174.77 166.952Z" fill="#FFEEEE"/>
<path d="M107.708 149.245C106.707 144.861 111.704 139.589 117.241 141.023C120.813 143.073 124.157 145.502 127.271 148.311C130.386 151.119 133.206 154.246 135.731 157.693C136.134 159.106 133.282 160.411 130.467 163.284C127.652 166.157 127.412 167.802 125.601 168.2C124.601 167.792 123.623 167.328 122.666 166.809C121.71 166.29 120.78 165.718 119.877 165.094C118.974 164.47 118.103 163.796 117.263 163.074C116.423 162.352 115.62 161.584 114.852 160.77C114.084 159.957 113.357 159.103 112.669 158.207C111.982 157.312 111.338 156.38 110.738 155.412C110.138 154.444 109.585 153.445 109.078 152.414C108.572 151.384 108.115 150.327 107.708 149.245Z" fill="#FFEEEE"/>
<path d="M216.668 175.333C216.772 174.914 216.899 174.504 217.048 174.103C217.197 173.702 217.368 173.312 217.562 172.933C217.755 172.554 217.968 172.19 218.201 171.84C218.434 171.491 218.686 171.157 218.956 170.841C219.226 170.525 219.514 170.228 219.817 169.95C220.12 169.671 220.438 169.415 220.77 169.179C221.102 168.944 221.446 168.732 221.801 168.543C222.157 168.353 222.522 168.188 222.896 168.048C223.27 167.907 223.65 167.792 224.037 167.703C224.423 167.613 224.814 167.55 225.207 167.512C225.601 167.475 225.995 167.464 226.39 167.479C226.785 167.495 227.178 167.536 227.568 167.604C227.959 167.672 228.344 167.766 228.724 167.885C229.104 168.005 229.475 168.149 229.839 168.318C230.204 168.488 230.556 168.681 230.899 168.897C231.242 169.114 231.57 169.352 231.886 169.613C235.268 174.34 238.179 179.393 240.62 184.773C243.061 190.152 244.981 195.747 246.38 201.557C246.215 203.636 242.189 203.831 237.491 206.102C232.793 208.374 231.747 210.42 229.39 209.97C228.355 208.841 227.375 207.658 226.45 206.421C225.524 205.183 224.658 203.897 223.852 202.563C223.045 201.229 222.302 199.854 221.623 198.437C220.943 197.021 220.331 195.57 219.785 194.085C219.24 192.601 218.764 191.089 218.359 189.552C217.953 188.014 217.62 186.458 217.357 184.883C217.096 183.308 216.907 181.723 216.792 180.127C216.676 178.531 216.635 176.933 216.668 175.333Z" fill="#FFEEEE"/>
<path d="M263.467 159.736C263.564 159.333 263.683 158.939 263.824 158.553C263.965 158.167 264.127 157.792 264.31 157.428C264.494 157.064 264.696 156.713 264.918 156.376C265.14 156.039 265.381 155.719 265.639 155.415C265.898 155.11 266.172 154.824 266.462 154.557C266.752 154.289 267.056 154.042 267.374 153.815C267.692 153.589 268.021 153.385 268.362 153.203C268.703 153.021 269.053 152.862 269.412 152.728C269.77 152.593 270.135 152.484 270.506 152.398C270.877 152.312 271.252 152.252 271.629 152.216C272.006 152.181 272.384 152.172 272.764 152.188C273.143 152.204 273.519 152.245 273.893 152.312C274.267 152.379 274.636 152.47 275 152.586C275.364 152.703 275.72 152.844 276.068 153.008C276.417 153.172 276.753 153.359 277.081 153.569C277.408 153.78 277.723 154.011 278.024 154.263C280.763 159.072 283.105 164.103 285.048 169.357C286.992 174.611 288.508 180.01 289.598 185.553C289.437 187.546 287.876 186.986 283.384 189.159C278.891 191.331 277.891 193.287 275.636 192.857C273.984 190.448 272.482 187.932 271.13 185.307C269.779 182.682 268.589 179.972 267.562 177.175C266.535 174.379 265.678 171.521 264.993 168.602C264.307 165.682 263.799 162.728 263.467 159.736Z" fill="#FFEEEE"/>
</g>
</svg>
