<svg width="343" height="291" viewBox="0 0 343 291" fill="none" xmlns="http://www.w3.org/2000/svg">
<path d="M342.497 170.847C336.828 173.374 333.909 179.572 329.5 183.888C326.541 186.435 323.398 188.671 320.071 190.595C316.744 192.52 313.287 194.101 309.699 195.341C293.704 201.885 277.651 207.928 261.424 213.702C253.359 216.571 245.031 218.814 236.752 220.798C232.869 221.346 229.088 222.354 225.409 223.822C221.73 225.29 218.243 227.183 214.946 229.501C211.602 232.394 208.789 235.906 205.375 238.774C201.444 242.034 197.359 245.045 193.122 247.807C185.462 252.874 177.96 258.36 170.089 263.02C166.465 264.914 163.064 267.207 159.885 269.897C156.253 273.525 152.364 276.785 148.218 279.675C139.186 284.453 129.729 287.767 119.844 289.617C119.747 289.649 119.669 289.71 119.608 289.8C119.548 289.889 119.517 289.99 119.517 290.101C119.517 290.213 119.548 290.313 119.608 290.402C119.669 290.492 119.748 290.553 119.844 290.585C123.515 291.12 127.185 291.113 130.854 290.567C134.523 290.021 138.062 288.953 141.47 287.364C145.056 286.097 148.497 284.46 151.792 282.455C155.087 280.449 158.174 278.113 161.052 275.445C168.47 269.559 176.23 264.28 184.333 259.606C192.101 254.08 199.74 248.214 207.197 242.195C210.791 239.395 214.572 236.942 218.54 234.835C222.508 232.729 226.608 230.999 230.839 229.645C239.021 226.836 246.917 223.243 255.278 221.076C264.419 218.707 273.707 217.937 282.826 215.272C290.919 212.908 298.588 209.312 306.473 206.271C310.378 205.238 314.104 203.688 317.651 201.621C321.198 199.554 324.455 197.035 327.421 194.064C333.253 186.906 335.028 177.045 342.77 171.561C343.09 171.336 342.89 170.672 342.497 170.847Z" fill="#F57A96"/>
<path d="M214.755 185.223C205.251 189.297 196.472 194.771 188.419 201.647C180.531 207.271 173.358 213.835 166.899 221.34C158.779 228.606 150.281 235.295 141.406 241.407C132.297 248.757 122.166 254.343 113.195 261.909C112.893 262.162 113.158 262.724 113.502 262.487C122.81 256.12 133.249 252.096 142.666 245.929C151.583 240.782 160.113 234.954 168.256 228.443C175.411 221.167 182.898 214.329 190.717 207.928C199.751 202.032 208.159 195.207 215.94 187.453C216.029 187.347 216.102 187.228 216.156 187.097C216.211 186.965 216.245 186.827 216.26 186.683C216.275 186.539 216.268 186.397 216.241 186.256C216.214 186.114 216.167 185.981 216.101 185.856C216.034 185.731 215.952 185.621 215.853 185.526C215.754 185.43 215.644 185.353 215.523 185.296C215.402 185.239 215.276 185.205 215.145 185.192C215.014 185.18 214.883 185.19 214.755 185.223Z" fill="#F57A96"/>
<path d="M206.34 176.986C198.142 178.532 190.152 180.917 182.37 184.141C174.589 187.364 167.156 191.369 160.073 196.153C147.006 202.538 134.456 209.974 122.423 218.46C115.907 224.01 110.174 230.51 103.564 235.973C97.4173 241.055 90.7227 245.07 84.4064 249.855C78.4459 254.369 72.763 259.262 66.5696 263.403C63.5272 265.389 60.3352 267.022 56.9936 268.303C53.652 269.584 50.2276 270.488 46.7205 271.014C46.3472 271.08 46.4546 271.608 46.7205 271.73C59.4102 277.557 73.4046 265.932 83.3353 258.516C89.4576 253.947 96.0168 250.042 101.962 245.213C108.316 239.697 114.266 233.697 119.811 227.214C125.776 221.982 132.11 217.359 138.815 213.347C145.52 209.334 152.492 205.993 159.731 203.324C175.549 195.283 191.5 187.55 207.442 179.835C209.055 179.051 207.77 176.77 206.34 176.986Z" fill="#F57A96"/>
<path d="M184.716 172.34C181.941 167.77 178.748 163.585 175.137 159.784C171.148 155.581 167.455 151.085 164.056 146.299C156.944 136.555 151.339 125.806 144.669 115.737C138.397 106.404 131.444 97.7282 123.81 89.709C119.491 85.15 115.074 80.6943 110.68 76.2277C109.009 74.5317 107.308 72.8755 105.503 71.3534C103.455 69.622 99.8764 68.0719 98.9152 65.2832L98.5238 65.401C99.0102 69.1455 102.45 71.6007 104.557 74.3233C108.337 79.2111 111.796 84.3889 115.749 89.1137C123.874 98.8272 131.868 108.678 139.728 118.667C146.928 128.682 153.639 139.077 159.862 149.852L161.127 151.772C153.097 154.282 145.341 157.569 137.858 161.634C136.35 162.181 134.872 162.815 133.425 163.536C136.398 161.619 139.398 159.756 142.462 158.111C144.998 157.1 147.351 155.716 149.522 153.959C151.693 152.201 153.592 150.143 155.221 147.783C155.468 147.359 154.963 146.772 154.572 147.071C149.735 150.416 144.621 153.13 139.23 155.214C132.609 158.054 126.247 161.473 120.143 165.471C113.91 168.881 107.925 172.752 102.187 177.083C96.449 181.415 91.0149 186.165 85.8845 191.333C81.2387 196.834 77.1073 202.68 71.9875 207.713C66.5721 213.036 60.3507 217.235 54.7627 222.328C49.0417 227.543 43.2695 232.707 37.6311 238.027C36.384 239.577 35.0365 241.014 33.5885 242.338C32.1404 243.662 30.6089 244.857 28.9938 245.923C27.3787 246.989 25.699 247.914 23.9546 248.697C22.2102 249.481 20.4216 250.113 18.5887 250.595V250.855C21.7144 250.511 24.7895 249.873 27.8138 248.941C30.8382 248.009 33.7664 246.797 36.5984 245.306C39.4305 243.814 42.1237 242.065 44.6781 240.059C47.2326 238.053 49.6097 235.82 51.8097 233.36C57.9833 228.134 63.8738 222.549 69.4813 216.604C74.7604 210.888 79.4731 204.422 85.2536 199.294C96.9989 188.475 109.503 178.841 122.765 170.393L123.726 169.792C120.438 172.441 117.322 175.315 114.379 178.415C110.254 183.168 105.893 187.643 101.296 191.841C97.7269 194.769 93.8284 197.072 90.3478 200.171C83.1369 208.497 75.4571 216.264 67.3086 223.474L67.4169 223.704C75.6185 218.323 83.2256 212.072 90.238 204.949C98.6824 197.903 106.967 190.677 115.399 183.597C119.382 180.034 123.524 176.709 127.824 173.621C131.613 171.08 135.687 169.14 139.324 166.35C144.605 162.869 150.254 160.405 156.272 158.957C157.59 158.659 158.838 158.152 160.014 157.434C161.19 156.717 162.242 155.822 163.168 154.751C165.185 157.612 167.362 160.319 169.699 162.87C171.58 165.016 173.587 167.009 175.72 168.85C178.294 170.56 180.952 172.096 183.693 173.458C184.305 173.841 185.166 173.036 184.716 172.34Z" fill="#F57A96"/>
<path d="M90.1844 130.557C89.3546 130.841 88.5584 131.213 87.7961 131.671C87.0339 132.13 86.32 132.666 85.6551 133.28C84.9903 133.895 84.387 134.575 83.8456 135.322C83.3039 136.068 82.8352 136.865 82.4386 137.714C79.3342 142.885 75.6122 147.45 71.2725 151.408C63.1386 159.096 55.7248 167.47 48.088 175.732C44.3646 179.761 40.4405 183.592 36.8327 187.746C34.0092 191.357 31.5781 195.261 29.5395 199.46C23.02 208.508 15.9566 217.012 8.34924 224.973L8.61267 225.262C14.7589 217.903 22.0233 211.815 27.7591 204.027C34.7461 195.31 42.3446 187.29 50.5546 179.968C58.369 172.456 65.8137 164.525 72.8885 156.177C76.3816 151.98 79.1644 147.298 82.5105 142.991C85.4131 139.253 90.2282 137.889 92.3843 133.693C92.4759 133.509 92.542 133.315 92.5824 133.11C92.6226 132.905 92.6352 132.698 92.6204 132.488C92.6056 132.279 92.5639 132.077 92.4957 131.88C92.4272 131.685 92.3347 131.504 92.2183 131.337C92.1018 131.17 91.9656 131.026 91.8112 130.903C91.6559 130.78 91.4883 130.684 91.3083 130.615C91.1274 130.546 90.9416 130.506 90.7509 130.496C90.5601 130.486 90.3702 130.507 90.1844 130.557Z" fill="#F57A96"/>
<path d="M79.8976 119.239L79.8548 118.895L79.7433 118.569L79.5691 118.279L79.3404 118.039L79.0687 117.861L78.7681 117.753L78.4535 117.722L78.1397 117.767C75.351 118.503 74.067 120.735 72.0925 122.932C69.6292 125.668 66.9273 128.145 64.578 131.007C59.8867 136.726 56.3582 143.45 52.1913 149.609C47.2557 156.907 41.3869 163.204 35.9401 170.012C33.8816 171.99 32.0579 174.201 30.4691 176.645C28.8802 179.089 27.5687 181.7 26.5345 184.48L26.564 184.803L26.779 185.027L27.075 185.043L27.3083 184.842C36.1189 172.501 45.8735 161.136 56.5721 150.745C60.9653 145.155 64.6821 138.85 69.5368 133.712C73.0363 130.011 80.6392 125.375 79.8976 119.239Z" fill="#F57A96"/>
<path d="M118.037 146.897C114.583 144.824 111.33 142.424 108.278 139.697C104.963 137.96 101.825 135.898 98.864 133.513C94.1695 128.718 91.3866 122.395 87.1066 117.296C82.2932 112.347 77.8995 106.985 73.9256 101.209C71.8843 97.5267 70.3145 93.617 69.216 89.4794C68.1176 85.3418 67.5283 81.1187 67.4482 76.8101H67.2748C66.7546 81.2411 66.7116 85.6778 67.1435 90.1201C67.5762 94.5624 68.473 98.8889 69.8344 103.099C71.5835 106.384 73.6353 109.422 75.9897 112.214C78.3442 115.006 80.9456 117.486 83.7941 119.655C89.3805 125.344 94.4317 131.547 99.6168 137.679C100.157 138.452 100.733 139.19 101.346 139.894C101.959 140.598 102.605 141.263 103.284 141.89C103.963 142.517 104.671 143.102 105.408 143.645C106.145 144.187 106.906 144.685 107.692 145.136C108.479 145.588 109.285 145.992 110.111 146.348C110.937 146.704 111.778 147.009 112.634 147.264C113.491 147.52 114.357 147.724 115.234 147.876C116.11 148.028 116.992 148.128 117.878 148.175C118.601 148.191 118.609 147.163 118.037 146.897Z" fill="#F57A96"/>
<path d="M138.46 132.501C137.113 129.786 135.619 127.171 133.98 124.657C132.341 122.143 130.567 119.748 128.661 117.472C126.754 115.196 124.727 113.056 122.582 111.053C120.436 109.049 118.186 107.197 115.834 105.496C112.357 100.964 109.486 96.0102 107.219 90.634C103.007 84.8551 99.3297 78.6919 96.1877 72.1443C96.1679 72.0651 96.1254 72.0048 96.0605 71.9649C95.9955 71.9243 95.9267 71.9149 95.8549 71.9367C95.7827 71.9585 95.7277 72.005 95.6914 72.0762C95.6544 72.1476 95.6458 72.223 95.6657 72.3018C96.1 75.2935 96.7222 78.2375 97.5315 81.1339C98.3408 84.0302 99.3296 86.8508 100.498 89.5957C101.666 92.3405 103.003 94.983 104.508 97.523C106.012 100.063 107.671 102.476 109.483 104.762C113.521 109.16 118.606 111.897 122.508 116.589C127.25 122.289 133.491 126.778 137.746 132.833C137.989 133.176 138.633 133.003 138.46 132.501Z" fill="#F57A96"/>
<path d="M206.679 147.706C204.568 143.628 202.179 139.758 199.511 136.094C195.154 130.179 191.197 123.958 187.64 117.431C184.043 111.614 180.406 105.827 176.731 100.07C173.077 94.3324 169.198 88.7722 165.542 83.0373C161.971 77.4382 159.656 71.0781 156.227 65.4029C154.931 63.1591 153.449 61.0757 151.779 59.1526C150.109 57.2295 148.285 55.5038 146.305 53.9755C140.94 51.0084 135.825 47.5912 130.959 43.7241L130.576 44.1454C137.094 53.267 145.35 60.2641 151.707 69.5406C158.903 80.042 166.384 90.2354 173.274 101.002C176.568 106.15 179.812 111.337 183.101 116.49C186.455 121.744 190.432 126.358 193.864 131.516C196.438 136.263 198.77 141.149 200.86 146.174C202.972 150.206 205.464 153.995 207.508 158.07C207.623 158.274 207.78 158.428 207.977 158.532C208.174 158.635 208.382 158.67 208.599 158.639C208.816 158.608 209.008 158.515 209.174 158.359C209.341 158.204 209.456 158.011 209.52 157.781C209.586 156.881 209.575 155.982 209.485 155.084C209.395 154.186 209.228 153.306 208.985 152.443C208.741 151.58 208.426 150.75 208.038 149.953C207.65 149.157 207.197 148.407 206.679 147.706Z" fill="#F57A96"/>
<path d="M247.05 164.434C246.303 157.325 244.924 150.366 242.914 143.559C240.513 137.109 237.044 131.261 234.688 124.771C232.748 118.279 230.497 111.919 227.936 105.691C224.455 98.4362 220.857 91.248 217.416 83.9683C213.976 76.6886 210.752 69.3001 207.935 61.7042C205.87 56.1278 205.363 50.9273 200.738 47.0968C195.476 42.7389 189.425 39.673 183.822 35.9095C181.21 34.1555 178.796 32.0826 176.216 30.2742C172.724 28.4087 169.403 26.228 166.255 23.732C166.179 23.6532 166.088 23.6115 165.984 23.6051C165.879 23.5995 165.786 23.6318 165.703 23.7021C165.621 23.7722 165.569 23.8633 165.547 23.9757C165.526 24.088 165.54 24.1949 165.59 24.2955C168.779 29.286 172.582 33.63 176.998 37.3274C181.698 41.7498 186.706 45.7014 192.023 49.1824C193.495 50.0857 194.892 51.1135 196.213 52.2657C197.534 53.4178 198.761 54.6792 199.896 56.0499C201.03 57.4206 202.056 58.8826 202.974 60.436C203.892 61.9893 204.69 63.6138 205.368 65.3092C208.112 72.3425 210.782 79.3912 213.743 86.3221C216.478 93.1918 219.601 99.8427 223.11 106.275C225.098 109.412 226.805 112.723 228.229 116.209C229.654 119.695 230.773 123.295 231.586 127.01C233.336 133.444 235.509 139.702 238.105 145.783C240.141 152.43 242.513 158.928 245.223 165.279C245.766 166.448 247.251 165.59 247.05 164.434Z" fill="#F57A96"/>
<path d="M266.664 164.423C265.105 161.252 262.259 159.504 260.581 156.34C258.965 153.295 257.643 150.132 255.94 147.124C252.02 140.116 248.436 132.907 245.186 125.497C241.758 118.654 237.99 112.043 233.883 105.665C231.8 102.065 230.221 98.1988 228.392 94.4488C226.333 91.1974 224.437 87.8347 222.706 84.3605C222.584 84.0307 222.023 84.0226 222.074 84.4511C222.471 87.0184 223.324 89.3879 224.634 91.5596C226.581 95.4083 227.825 99.623 229.506 103.609C233.102 112.126 237.892 119.844 241.061 128.609C243.934 136.478 247.432 143.996 251.556 151.164C252.251 152.79 253.063 154.342 253.994 155.818C254.925 157.295 255.962 158.677 257.103 159.963C258.245 161.25 259.476 162.423 260.797 163.483C262.118 164.543 263.51 165.476 264.973 166.28C265.091 166.351 265.216 166.4 265.349 166.426C265.482 166.452 265.615 166.455 265.748 166.434C265.881 166.413 266.008 166.369 266.129 166.302C266.249 166.236 266.357 166.151 266.453 166.046C266.548 165.942 266.625 165.823 266.685 165.691C266.746 165.559 266.785 165.419 266.804 165.273C266.823 165.127 266.821 164.98 266.797 164.836C266.773 164.69 266.729 164.552 266.664 164.423Z" fill="#F57A96"/>
<path d="M274.247 112.696C272.248 107.374 270.514 101.824 268.077 96.7213L266.677 93.7704C269.336 93.6581 271.865 92.9704 274.265 91.7075C279.567 88.83 280.92 77.0629 280.706 77.3383C278.175 80.6053 276.957 85.36 273.293 87.375C271.31 88.3662 269.228 88.8495 267.048 88.8246C266.121 88.8463 265.207 88.734 264.304 88.7186C260.222 79.9784 256.137 71.1721 251.512 62.826L250.563 61.1952L253.441 61.515C257.083 61.158 260.709 61.2985 264.318 61.9363C267.928 62.575 271.411 63.691 274.766 65.2855C274.876 65.3526 274.993 65.3988 275.118 65.4241C275.241 65.4494 275.366 65.4525 275.491 65.4333C275.616 65.4141 275.734 65.3737 275.848 65.3119C275.961 65.2502 276.061 65.1705 276.151 65.0727C276.24 64.9748 276.312 64.8643 276.369 64.7402C276.425 64.6161 276.462 64.4856 276.48 64.3488C276.498 64.212 276.495 64.0752 276.472 63.9393C276.449 63.8034 276.408 63.6747 276.347 63.5533C275.982 62.9083 275.577 62.294 275.135 61.7104C274.692 61.1269 274.215 60.5794 273.703 60.0683C273.191 59.5573 272.65 59.0872 272.078 58.6584C271.507 58.2299 270.912 57.8457 270.292 57.5076C269.673 57.1697 269.035 56.8797 268.379 56.6378C267.722 56.3959 267.054 56.2057 266.374 56.0662C265.694 55.9266 265.008 55.8387 264.317 55.8025C263.626 55.7668 262.935 55.7835 262.246 55.8526C257.346 56.4279 252.433 56.7133 247.505 56.7079C242.255 50.4588 236.314 45.1385 229.682 40.7477C224.753 37.0838 220.839 32.1235 216.222 28.0256C211.485 24.4124 207.187 20.2527 203.33 15.5464L203.117 15.7276C208.588 25.2491 215.084 33.8379 222.605 41.4942C230.918 50.1329 241.404 54.1148 247.552 65.3719C253.236 75.7782 256.765 87.404 262.537 97.8257C265.333 102.874 267.52 108.249 270.217 113.362C273.087 119.691 276.252 125.837 279.713 131.8C280.085 132.356 281.005 132.057 280.796 131.299C279.077 125.04 276.524 118.756 274.247 112.696Z" fill="#F57A96"/>
<path d="M276.194 57.4116L276.044 57.5376C276.317 59.2103 276.771 60.8211 277.408 62.3698C278.046 63.9185 278.846 65.358 279.81 66.6882C280.262 67.6886 280.636 68.7234 280.931 69.7927C281.226 70.8619 281.437 71.9506 281.565 73.0586C281.693 74.1667 281.737 75.2789 281.695 76.3949C281.653 77.511 281.526 78.6154 281.316 79.7082L281.356 80.0253L281.469 80.3197L281.648 80.5725L281.88 80.7664L282.149 80.8887L282.438 80.9306L282.727 80.8896L282.997 80.7682C290.851 75.0397 283.681 59.2055 276.194 57.4116Z" fill="#F57A96"/>
<path d="M81.9926 63.7925C81.3213 63.805 80.6565 63.8822 79.9979 64.0235C79.3389 64.1648 78.697 64.3696 78.0712 64.636C77.4453 64.9023 76.8459 65.2276 76.2726 65.6103C75.6995 65.9935 75.161 66.4284 74.6579 66.9162C74.155 67.4036 73.6948 67.9361 73.2776 68.513C72.8606 69.0901 72.4931 69.7027 72.1744 70.3511C71.8565 70.9998 71.5922 71.6736 71.3825 72.3732C71.1728 73.0726 71.0208 73.7873 70.9267 74.5165C70.8747 75.1208 71.6154 75.3618 71.968 74.9895C75.2524 71.849 78.8889 69.317 82.8773 67.3936C84.6293 66.4308 83.5286 64.0154 81.9926 63.7925Z" fill="#F57A96"/>
<path d="M119.968 31.6894C117.528 31.4421 115.109 31.5897 112.71 32.1324C110.311 32.676 108.036 33.5906 105.886 34.8774C105.036 35.6077 104.256 36.418 103.546 37.3098C102.836 38.2013 102.209 39.1584 101.664 40.1803C101.119 41.2023 100.667 42.2713 100.307 43.3873C99.9466 44.5033 99.6848 45.6464 99.5213 46.8168C99.4924 46.9472 99.4983 47.075 99.5388 47.2018C99.5793 47.3287 99.6478 47.432 99.7452 47.5144C99.8419 47.5961 99.9517 47.6422 100.073 47.653C100.194 47.6636 100.309 47.6369 100.417 47.5729C103.462 45.3793 106.252 42.8475 108.788 39.9779C109.601 38.993 110.511 38.1341 111.521 37.4013C112.531 36.6683 113.607 36.0847 114.751 35.6499C116.68 35.0039 118.539 34.1692 120.327 33.1448C120.461 33.0533 120.558 32.9265 120.617 32.7652C120.675 32.603 120.683 32.4381 120.642 32.2705C120.6 32.1029 120.517 31.9652 120.393 31.8574C120.268 31.7496 120.125 31.6939 119.968 31.6894Z" fill="#F57A96"/>
<path d="M159.123 16.6427C158.315 16.081 157.482 15.5674 156.625 15.1015C155.768 14.6359 154.891 14.22 153.994 13.855C153.098 13.4899 152.186 13.1773 151.26 12.9166C150.333 12.6566 149.397 12.45 148.45 12.2969C147.504 12.1438 146.553 12.046 145.597 12.0025C144.642 11.9589 143.687 11.9703 142.732 12.0365C141.777 12.1027 140.829 12.2231 139.886 12.3989C138.943 12.5738 138.01 12.803 137.089 13.0856C135.77 13.9482 134.522 14.9208 133.346 16.0041C132.17 17.0876 131.08 18.2675 130.078 19.5441C129.076 20.8206 128.173 22.1771 127.37 23.6135C126.568 25.05 125.875 26.5479 125.293 28.1071L125.618 28.571C129.723 26.0683 133.531 23.106 137.042 19.684C138.762 18.8732 140.53 18.2211 142.347 17.7266C144.163 17.232 146.004 16.9022 147.87 16.7369C149.735 16.5711 151.601 16.5729 153.466 16.741C155.331 16.9095 157.172 17.242 158.988 17.7388C159.607 17.7832 159.612 16.8593 159.123 16.6427Z" fill="#F57A96"/>
<path d="M191.387 3.80256C182.368 -6.51859 170.505 6.68365 164.178 13.7006L164.213 13.7912C165.861 13.8475 167.48 13.6381 169.07 13.1615C170.66 12.685 172.152 11.9639 173.545 10.9971C175.778 9.12441 177.219 6.43086 179.755 4.97039C180.64 4.58171 181.548 4.28364 182.481 4.07436C183.415 3.86507 184.357 3.7491 185.309 3.72555C186.262 3.70234 187.208 3.77247 188.149 3.93574C189.089 4.09882 190.009 4.35341 190.908 4.6986C191.014 4.72585 191.117 4.71599 191.217 4.66905C191.317 4.6221 191.395 4.54764 191.449 4.44435C191.504 4.34107 191.526 4.23054 191.515 4.11185C191.503 3.99317 191.461 3.89045 191.387 3.80256Z" fill="#F57A96"/>
<path d="M135.956 59.6149C135.371 59.641 134.788 59.7064 134.21 59.8115C133.632 59.9166 133.061 60.0607 132.499 60.2437C131.937 60.4267 131.388 60.6469 130.85 60.9042C130.313 61.1615 129.792 61.455 129.288 61.783C128.785 62.1119 128.301 62.4725 127.837 62.867C127.374 63.2611 126.935 63.6851 126.519 64.1394C126.104 64.5933 125.716 65.0738 125.355 65.5806C124.994 66.087 124.663 66.6167 124.362 67.1685L124.57 67.3978C126.55 66.3358 128.587 65.4277 130.681 64.6734C132.712 64.0528 134.718 63.3842 136.722 62.6603C136.899 62.5984 137.06 62.5026 137.204 62.3722C137.348 62.2417 137.464 62.0868 137.553 61.9074C137.642 61.728 137.696 61.5359 137.718 61.333C137.739 61.13 137.725 60.9298 137.675 60.7323C137.626 60.5348 137.545 60.3554 137.432 60.1932C137.318 60.0311 137.182 59.897 137.022 59.7928C136.862 59.6886 136.689 59.6207 136.505 59.5898C136.321 59.5588 136.138 59.5682 135.956 59.6149Z" fill="#F57A96"/>
<path d="M185.579 51.8623C181.825 49.7422 175.046 49.8283 173.245 54.9083L173.621 55.4519C175.43 55.3024 177.117 54.5658 178.892 54.2423C180.935 53.8691 183.056 54.0068 185.117 53.735C185.928 53.6254 186.474 52.3678 185.579 51.8623Z" fill="#F57A96"/>
<path d="M237.242 57.8463C236.927 57.5989 236.588 57.4023 236.224 57.2592C235.86 57.1151 235.485 57.0291 235.099 56.9992C234.713 56.97 234.331 56.9994 233.952 57.0873C233.574 57.1752 233.213 57.3183 232.871 57.5168C232.194 57.7759 231.546 58.1048 230.929 58.5043C230.289 58.9084 230.109 59.6975 229.55 60.0699L229.626 60.7149C230.237 60.8569 230.606 61.3969 231.266 61.4395C231.913 61.4152 232.546 61.3018 233.166 61.0988C234.489 60.9828 235.76 60.6367 236.98 60.0605C237.063 60.0049 237.14 59.94 237.21 59.8648C237.28 59.7902 237.342 59.7081 237.395 59.6184C237.449 59.5286 237.492 59.4336 237.526 59.333C237.56 59.2325 237.583 59.1292 237.595 59.0223C237.608 58.9163 237.609 58.8093 237.6 58.7024C237.591 58.5955 237.571 58.4913 237.54 58.3899C237.51 58.2884 237.469 58.1915 237.419 58.099C237.368 58.0075 237.309 57.9233 237.242 57.8463Z" fill="#F57A96"/>
<path d="M78.702 87.8885C78.4402 87.8126 78.1768 87.8083 77.9125 87.8754C77.6483 87.9426 77.4138 88.0738 77.209 88.2677C76.7746 88.6274 76.4154 89.0614 76.1313 89.5697C75.6747 90.6147 75.5079 91.7128 75.6293 92.8639C75.6325 92.9825 75.6703 93.0858 75.7424 93.1746C75.8148 93.2629 75.9051 93.315 76.0116 93.3314C76.119 93.3473 76.2181 93.3233 76.3097 93.2594C76.4005 93.1954 76.4625 93.1063 76.4947 92.993C76.811 92.1848 77.2536 91.4699 77.8217 90.8494C78.4014 90.2895 78.8637 89.6306 79.2074 88.8716C79.2328 88.7692 79.2396 88.666 79.2277 88.5618C79.2159 88.4567 79.1863 88.3588 79.1394 88.2664C79.092 88.174 79.0304 88.0961 78.9552 88.0299C78.8796 87.9646 78.7945 87.9175 78.702 87.8885Z" fill="#F57A96"/>
<path d="M93.5518 143.165C92.2752 142.485 89.8904 141.498 88.5865 142.567C88.475 142.644 88.3742 142.735 88.2834 142.84C88.1934 142.945 88.1158 143.061 88.0522 143.187C87.9886 143.314 87.9407 143.446 87.9077 143.587C87.8748 143.726 87.8584 143.868 87.8584 144.013C87.8584 144.157 87.8748 144.3 87.9077 144.44C87.9405 144.58 87.9888 144.713 88.0522 144.84C88.1158 144.967 88.1926 145.082 88.2834 145.187C88.3734 145.292 88.475 145.382 88.5865 145.459C89.0159 145.724 89.4596 145.954 89.9184 146.15L91.5444 147.299C92.5292 148.147 93.6261 148.748 94.8351 149.102C94.9458 149.134 95.0581 149.151 95.172 149.155C95.286 149.158 95.3991 149.148 95.5114 149.123C95.6237 149.098 95.7311 149.06 95.8351 149.009C95.9392 148.957 96.0366 148.894 96.1274 148.818C96.2183 148.742 96.3 148.656 96.3735 148.56C96.4466 148.464 96.5089 148.359 96.5601 148.247C96.6116 148.136 96.651 148.019 96.6782 147.896C96.7055 147.775 96.72 147.651 96.7217 147.526C96.6578 147.041 96.5368 146.573 96.36 146.124C96.1825 145.674 95.9546 145.258 95.6763 144.874C95.398 144.491 95.0784 144.155 94.718 143.865C94.358 143.575 93.9686 143.341 93.5518 143.165Z" fill="#F57A96"/>
<path d="M148.988 178.373C148.439 177.625 147.798 176.991 147.064 176.47C146.33 175.949 145.54 175.566 144.694 175.324C144.023 175.045 143.329 174.918 142.612 174.944C141.896 174.97 141.211 175.146 140.558 175.473C140.422 175.563 140.306 175.678 140.21 175.818C140.114 175.957 140.046 176.112 140.006 176.281C139.966 176.45 139.956 176.62 139.977 176.793C139.997 176.966 140.047 177.129 140.126 177.281C140.903 178.232 141.799 179.021 142.814 179.647C143.964 180.534 145.166 181.325 146.42 182.021C146.642 182.153 146.878 182.239 147.129 182.279C147.379 182.319 147.627 182.31 147.874 182.253C148.121 182.196 148.352 182.094 148.566 181.946C148.78 181.798 148.964 181.615 149.119 181.396C149.273 181.177 149.388 180.935 149.464 180.67C149.54 180.406 149.572 180.135 149.56 179.858C149.548 179.581 149.493 179.316 149.394 179.06C149.295 178.805 149.16 178.576 148.988 178.373Z" fill="#F57A96"/>
<path d="M204.2 219.484C203.632 219.118 203.036 218.816 202.413 218.578L200.833 217.708C199.822 216.969 198.748 216.363 197.613 215.887C197.529 215.863 197.443 215.85 197.356 215.847C197.269 215.844 197.183 215.852 197.097 215.871C197.012 215.889 196.93 215.918 196.851 215.958C196.771 215.997 196.697 216.045 196.628 216.103C196.558 216.161 196.496 216.227 196.44 216.3C196.385 216.373 196.337 216.453 196.298 216.538C196.259 216.624 196.229 216.712 196.209 216.806C196.188 216.898 196.178 216.992 196.177 217.088C196.236 218.077 196.452 219.024 196.823 219.927C197.195 220.83 197.698 221.635 198.334 222.339C198.523 222.583 198.733 222.804 198.963 223.003C199.192 223.201 199.438 223.371 199.699 223.515C199.96 223.659 200.232 223.774 200.514 223.857C200.797 223.941 201.083 223.993 201.375 224.014C201.667 224.034 201.957 224.023 202.247 223.979C202.537 223.935 202.819 223.86 203.095 223.754C203.371 223.648 203.634 223.513 203.885 223.348C204.136 223.184 204.37 222.994 204.587 222.778C204.686 222.663 204.773 222.537 204.847 222.401C204.922 222.264 204.981 222.12 205.026 221.969C205.071 221.818 205.1 221.663 205.113 221.506C205.127 221.347 205.124 221.189 205.106 221.032C205.087 220.874 205.053 220.721 205.003 220.571C204.954 220.422 204.89 220.281 204.811 220.147C204.733 220.012 204.642 219.89 204.539 219.779C204.435 219.667 204.323 219.568 204.2 219.484Z" fill="#F57A96"/>
<path d="M333.185 77.0539C323.286 78.2969 313.689 80.8865 304.394 84.8229C299.747 85.4136 295.177 86.419 290.683 87.8398C286.188 89.2606 281.831 91.0771 277.611 93.2894C277.354 93.487 277.406 94.0596 277.791 94.0143C282.077 93.5286 286.278 92.1425 290.559 91.4657C295.536 90.6793 300.551 90.2145 305.495 89.2007C315.34 87.4033 324.766 84.149 333.775 79.4376C333.881 79.3638 333.975 79.2736 334.055 79.1667C334.135 79.0598 334.198 78.942 334.244 78.8134C334.29 78.6847 334.316 78.5516 334.322 78.4129C334.329 78.2752 334.316 78.1393 334.283 78.0061C334.25 77.873 334.199 77.7488 334.129 77.6329C334.06 77.5178 333.976 77.4172 333.877 77.3312C333.778 77.2454 333.67 77.179 333.552 77.131C333.434 77.0834 333.311 77.0585 333.185 77.0539Z" fill="#F57A96"/>
<path d="M0.167447 239.346C1.77806 236.579 3.55164 233.944 5.48819 231.442C7.42474 228.94 9.50649 226.592 11.7335 224.4C13.9604 222.207 16.3122 220.19 18.7887 218.348C21.2652 216.505 23.8438 214.855 26.5245 213.397C26.5245 213.397 33.0564 212.958 32.6865 225.139C32.3165 237.319 9.77782 251.712 9.77782 251.712C9.77782 251.712 -1.49567 249.887 0.167447 239.346Z" fill="#F57A96"/>
<path d="M12.981 204.146C13.8001 202.06 14.744 200.044 15.8126 198.099C16.8813 196.153 18.0649 194.296 19.3635 192.527C20.6621 190.758 22.0638 189.093 23.5685 187.533C25.0732 185.973 26.6672 184.531 28.3503 183.209C28.3503 183.209 32.5973 179.313 33.5403 187.739C34.4834 196.165 20.5757 208.705 20.5757 208.705C20.5757 208.705 12.8836 211.595 12.981 204.146Z" fill="#F57A96"/>
<path d="M33.902 257.281C35.6806 254.641 37.6136 252.145 39.7009 249.794C41.7881 247.442 44.0106 245.255 46.3683 243.235C48.726 241.214 51.1973 239.377 53.7822 237.724C56.3671 236.071 59.0419 234.617 61.8066 233.362C61.8066 233.362 68.35 233.412 67.2262 245.536C66.1023 257.66 42.7262 270.334 42.7262 270.334C42.7262 270.334 31.5898 267.676 33.902 257.281Z" fill="#F57A96"/>
<path d="M104.544 275.333C106.428 273.183 108.449 271.201 110.607 269.388C112.765 267.574 115.035 265.95 117.418 264.514C119.8 263.078 122.268 261.848 124.821 260.823C127.373 259.799 129.982 258.991 132.646 258.4C132.978 258.424 133.309 258.47 133.636 258.537C133.963 258.605 134.286 258.693 134.604 258.803C134.921 258.912 135.232 259.043 135.535 259.193C135.838 259.344 136.133 259.514 136.418 259.703C136.703 259.893 136.976 260.1 137.239 260.325C137.501 260.55 137.75 260.791 137.986 261.05C138.222 261.308 138.443 261.58 138.649 261.867C138.855 262.154 139.044 262.453 139.218 262.766C139.391 263.077 139.547 263.4 139.685 263.732C139.823 264.065 139.943 264.405 140.045 264.753C140.145 265.101 140.227 265.455 140.29 265.814C140.352 266.173 140.395 266.534 140.418 266.899C140.441 267.263 140.444 267.628 140.427 267.993C140.41 268.358 140.373 268.721 140.317 269.081C140.261 269.44 140.185 269.796 140.09 270.146C139.995 270.496 139.881 270.839 139.748 271.174C136.811 282.927 111.275 289.811 111.275 289.811C111.275 289.811 100.696 285.162 104.544 275.333Z" fill="#F57A96"/>
<path d="M173.225 143.956C173.237 143.547 173.272 143.14 173.329 142.736C173.386 142.331 173.465 141.932 173.566 141.538C173.668 141.144 173.79 140.758 173.934 140.38C174.077 140.002 174.242 139.635 174.426 139.279C174.61 138.923 174.813 138.581 175.035 138.252C175.257 137.923 175.497 137.609 175.754 137.313C176.01 137.015 176.282 136.736 176.57 136.475C176.858 136.214 177.158 135.973 177.473 135.752C177.787 135.531 178.112 135.332 178.448 135.154C178.784 134.977 179.13 134.822 179.482 134.69C179.836 134.557 180.195 134.45 180.56 134.365C180.925 134.281 181.293 134.221 181.666 134.186C182.037 134.151 182.41 134.14 182.783 134.155C183.156 134.169 183.527 134.208 183.895 134.272C184.263 134.335 184.627 134.423 184.986 134.535C185.346 134.648 185.697 134.783 186.041 134.941C190.164 138.325 193.932 142.133 197.345 146.364C200.757 150.596 203.742 155.163 206.301 160.066C206.594 161.983 202.923 163.178 199.077 166.416C195.232 169.654 194.707 171.762 192.435 171.957C191.245 171.212 190.093 170.403 188.978 169.53C187.864 168.656 186.792 167.723 185.764 166.73C184.737 165.737 183.757 164.689 182.827 163.587C181.896 162.484 181.019 161.333 180.195 160.132C179.372 158.931 178.606 157.688 177.898 156.402C177.189 155.115 176.543 153.793 175.957 152.434C175.372 151.076 174.851 149.688 174.395 148.271C173.938 146.855 173.548 145.417 173.225 143.956Z" fill="#F57A96"/>
<path d="M106.163 126.249C105.162 121.865 110.159 116.593 115.697 118.027C119.269 120.078 122.612 122.507 125.726 125.315C128.841 128.123 131.661 131.251 134.187 134.698C134.589 136.11 131.737 137.416 128.922 140.289C126.107 143.162 125.867 144.806 124.056 145.205C123.056 144.796 122.078 144.332 121.121 143.813C120.165 143.294 119.235 142.722 118.332 142.098C117.429 141.474 116.558 140.801 115.718 140.078C114.879 139.356 114.075 138.588 113.307 137.775C112.539 136.961 111.812 136.107 111.125 135.212C110.437 134.317 109.793 133.385 109.193 132.417C108.593 131.448 108.04 130.449 107.534 129.419C107.027 128.388 106.57 127.332 106.163 126.249Z" fill="#F57A96"/>
<path d="M215.123 152.337C215.227 151.918 215.354 151.509 215.503 151.107C215.653 150.706 215.823 150.316 216.017 149.937C216.21 149.559 216.423 149.195 216.656 148.845C216.89 148.495 217.141 148.162 217.411 147.845C217.681 147.529 217.969 147.232 218.272 146.954C218.575 146.676 218.893 146.419 219.225 146.184C219.557 145.948 219.901 145.736 220.257 145.547C220.613 145.358 220.977 145.193 221.351 145.052C221.725 144.912 222.105 144.797 222.492 144.707C222.878 144.617 223.269 144.554 223.662 144.517C224.056 144.479 224.45 144.468 224.846 144.484C225.24 144.499 225.633 144.541 226.023 144.609C226.414 144.677 226.799 144.77 227.179 144.89C227.559 145.009 227.93 145.153 228.295 145.323C228.659 145.492 229.011 145.685 229.354 145.902C229.697 146.118 230.026 146.356 230.342 146.617C233.723 151.344 236.635 156.398 239.075 161.777C241.516 167.157 243.436 172.751 244.836 178.561C244.67 180.64 240.644 180.835 235.946 183.107C231.248 185.378 230.202 187.425 227.845 186.974C226.81 185.846 225.83 184.663 224.905 183.425C223.979 182.187 223.113 180.902 222.307 179.568C221.5 178.234 220.757 176.858 220.078 175.442C219.398 174.025 218.786 172.575 218.24 171.09C217.695 169.605 217.22 168.094 216.814 166.556C216.408 165.018 216.075 163.462 215.813 161.887C215.551 160.312 215.363 158.727 215.247 157.131C215.131 155.535 215.09 153.937 215.123 152.337Z" fill="#F57A96"/>
<path d="M261.923 136.74C262.019 136.338 262.138 135.944 262.279 135.558C262.42 135.172 262.582 134.797 262.766 134.432C262.949 134.068 263.151 133.718 263.373 133.381C263.596 133.044 263.836 132.723 264.094 132.419C264.353 132.114 264.627 131.828 264.917 131.561C265.207 131.294 265.511 131.046 265.829 130.82C266.147 130.593 266.477 130.389 266.818 130.207C267.159 130.025 267.508 129.867 267.867 129.733C268.225 129.598 268.59 129.488 268.961 129.402C269.332 129.316 269.707 129.256 270.084 129.221C270.462 129.186 270.84 129.176 271.219 129.192C271.598 129.208 271.975 129.249 272.348 129.316C272.722 129.383 273.092 129.475 273.455 129.591C273.82 129.708 274.175 129.848 274.523 130.012C274.872 130.177 275.209 130.364 275.536 130.574C275.863 130.784 276.178 131.015 276.479 131.268C279.218 136.076 281.56 141.107 283.504 146.361C285.447 151.616 286.964 157.014 288.053 162.557C287.892 164.551 286.331 163.991 281.839 166.163C277.347 168.336 276.346 170.292 274.091 169.861C272.439 167.453 270.937 164.936 269.585 162.311C268.234 159.686 267.044 156.976 266.017 154.18C264.99 151.384 264.134 148.526 263.448 145.606C262.763 142.687 262.254 139.733 261.923 136.74Z" fill="#F57A96"/>
</svg>
